<?xml version="1.0" encoding="utf-8"?>
<!-- Generator: Adobe Illustrator 26.3.1, SVG Export Plug-In . SVG Version: 6.00 Build 0)  -->
<svg version="1.1" id="Layer_2" xmlns="http://www.w3.org/2000/svg" xmlns:xlink="http://www.w3.org/1999/xlink" x="0px" y="0px"
	 viewBox="0 0 200 200" style="enable-background:new 0 0 200 200;" xml:space="preserve">
<g>
	<g>
		<path style="fill:#337788;" d="M100,192.4c-50.9,0-92.4-41.4-92.4-92.4C7.6,49.1,49.1,7.6,100,7.6c50.9,0,92.4,41.4,92.4,92.4
			C192.4,150.9,150.9,192.4,100,192.4z M100,33.6c-36.6,0-66.4,29.8-66.4,66.4c0,36.6,29.8,66.4,66.4,66.4
			c36.6,0,66.4-29.8,66.4-66.4C166.4,63.4,136.6,33.6,100,33.6z"/>
		<path style="fill:#337788;" d="M124.9,101.7l13,13V56.2c-7.3-6.3-16.2-10.9-26-13v71.4L124.9,101.7z"/>
		<path style="fill:#337788;" d="M75.1,88.4l13-13V43.3c-9.8,2.1-18.7,6.6-26,13v19.1L75.1,88.4z"/>
		<path style="fill:#337788;" d="M75.1,98.3l-13-13v58.5c7.3,6.3,16.2,10.9,26,13V85.3L75.1,98.3z"/>
	</g>
	<path style="fill:#666666;" d="M124.9,111.6l-13,13v32.1c9.8-2.1,18.7-6.6,26-13v-19.1L124.9,111.6z"/>
</g>
</svg>
